<svg xmlns="http://www.w3.org/2000/svg" viewBox="0 0 64 64" aria-hidden="true"><ellipse cx="32" cy="58" rx="16" ry="3.6" fill="#2b1a0c" opacity=".18"/><path d="M18 18c4-4 24-4 28 0l4 32c0 4-8 6-18 6s-18-2-18-6z" fill="#fff4d8" stroke="#4a2c16" stroke-width="3" stroke-linejoin="round" stroke-linecap="round"/><path d="M20 18c2-6 22-6 24 0" fill="none" stroke="#4a2c16" stroke-width="3" stroke-linejoin="round" stroke-linecap="round"/><path d="M26 12c4 4 8 4 12 0" stroke="#94592b" stroke-width="2.6" fill="none" stroke-linecap="round"/><g transform="rotate(0 32 48)"><path d="M32 48 V32" stroke="#e39b00" stroke-width="3" stroke-linecap="round"/><ellipse cx="28.8" cy="30" rx="3" ry="4.4" transform="rotate(-28 28.8 30)" fill="#ffd23f" stroke="#4a2c16" stroke-width="1.6" stroke-linejoin="round" stroke-linecap="round"/><ellipse cx="35.2" cy="30" rx="3" ry="4.4" transform="rotate(28 35.2 30)" fill="#ffd23f" stroke="#4a2c16" stroke-width="1.6" stroke-linejoin="round" stroke-linecap="round"/><ellipse cx="28.8" cy="35" rx="3" ry="4.4" transform="rotate(-28 28.8 35)" fill="#ffd23f" stroke="#4a2c16" stroke-width="1.6" stroke-linejoin="round" stroke-linecap="round"/><ellipse cx="35.2" cy="35" rx="3" ry="4.4" transform="rotate(28 35.2 35)" fill="#ffd23f" stroke="#4a2c16" stroke-width="1.6" stroke-linejoin="round" stroke-linecap="round"/><ellipse cx="28.8" cy="40" rx="3" ry="4.4" transform="rotate(-28 28.8 40)" fill="#ffd23f" stroke="#4a2c16" stroke-width="1.6" stroke-linejoin="round" stroke-linecap="round"/><ellipse cx="35.2" cy="40" rx="3" ry="4.4" transform="rotate(28 35.2 40)" fill="#ffd23f" stroke="#4a2c16" stroke-width="1.6" stroke-linejoin="round" stroke-linecap="round"/><ellipse cx="28.8" cy="45" rx="3" ry="4.4" transform="rotate(-28 28.8 45)" fill="#ffd23f" stroke="#4a2c16" stroke-width="1.6" stroke-linejoin="round" stroke-linecap="round"/><ellipse cx="35.2" cy="45" rx="3" ry="4.4" transform="rotate(28 35.2 45)" fill="#ffd23f" stroke="#4a2c16" stroke-width="1.6" stroke-linejoin="round" stroke-linecap="round"/><ellipse cx="32" cy="27" rx="2.6" ry="4.2" fill="#ffd23f" stroke="#4a2c16" stroke-width="1.6" stroke-linejoin="round" stroke-linecap="round"/></g></svg>
